PathFileType	4	(X/Y/Z)	E:/New_biomech_experiments/MICROGRAVITY MOCAP/Session 2024-06-22/Neeraj_StickPose_22_06_24.trc	
DataRate	CameraRate	NumFrames	NumMarkers	Units	OrigDataRate	OrigDataStartFrame	OrigNumFrames	
120.00	120.00	16	19	m	120.00	589	1570	
Frame#	Time	 RSHO			 RBAK			 LBHD			 RUPA			 PRSHO			 RWRA			 RELB			 RFRM			 CLAV			 STRN			 ARSHO			 RFHD			 LFHD			 DIA			 C7			 RBHD			 MRELB			 RWRB			 T10			
		X1	Y1	Z1	X2	Y2	Z2	X3	Y3	Z3	X4	Y4	Z4	X5	Y5	Z5	X6	Y6	Z6	X7	Y7	Z7	X8	Y8	Z8	X9	Y9	Z9	X10	Y10	Z10	X11	Y11	Z11	X12	Y12	Z12	X13	Y13	Z13	X14	Y14	Z14	X15	Y15	Z15	X16	Y16	Z16	X17	Y17	Z17	X18	Y18	Z18	X19	Y19	Z19	

589	4.900	-0.00986	1.51583	0.19134	-0.11717	1.36259	0.05027	-0.04493	1.71627	-0.07760	0.00618	1.30167	0.23613	-0.09675	1.46302	0.13507	0.04768	0.88252	0.21252	0.00225	1.15952	0.24341	0.01073	1.02429	0.25455	0.10321	1.48452	-0.02436	0.14628	1.32291	-0.01886	0.08570	1.45890	0.14193	0.05966	1.81460	0.06251	0.07061	1.82876	-0.03992	0.08746	1.16522	0.13883	-0.08922	1.52909	-0.01651	-0.06409	1.71502	0.02565	-0.05950	1.14262	0.13999	-0.04710	0.86200	0.23868	-0.10777	1.33325	-0.02008 
590	4.908	-0.00982	1.51584	0.19133	-0.11711	1.36259	0.05022	-0.04490	1.71626	-0.07764	0.00625	1.30165	0.23608	-0.09669	1.46300	0.13503	0.04773	0.88251	0.21249	0.00230	1.15951	0.24337	0.01078	1.02428	0.25451	0.10325	1.48452	-0.02442	0.14633	1.32290	-0.01893	0.08575	1.45889	0.14187	0.05969	1.81460	0.06246	0.07063	1.82877	-0.03996	0.08754	1.16521	0.13877	-0.08918	1.52908	-0.01655	-0.06406	1.71498	0.02561	-0.05945	1.14261	0.13996	-0.04704	0.86199	0.23866	-0.10772	1.33325	-0.02013 
591	4.917	-0.00977	1.51584	0.19131	-0.11705	1.36259	0.05018	-0.04488	1.71625	-0.07769	0.00633	1.30163	0.23604	-0.09662	1.46299	0.13498	0.04779	0.88251	0.21247	0.00236	1.15951	0.24333	0.01083	1.02428	0.25448	0.10330	1.48452	-0.02447	0.14638	1.32290	-0.01900	0.08580	1.45887	0.14181	0.05973	1.81461	0.06242	0.07066	1.82878	-0.04000	0.08762	1.16521	0.13870	-0.08914	1.52907	-0.01659	-0.06403	1.71497	0.02556	-0.05940	1.14260	0.13993	-0.04698	0.86198	0.23864	-0.10768	1.33326	-0.02019 
592	4.925	-0.00972	1.51583	0.19127	-0.11699	1.36259	0.05013	-0.04486	1.71624	-0.07775	0.00641	1.30162	0.23599	-0.09656	1.46297	0.13493	0.04785	0.88250	0.21245	0.00242	1.15952	0.24328	0.01089	1.02428	0.25444	0.10335	1.48452	-0.02453	0.14643	1.32290	-0.01907	0.08586	1.45887	0.14175	0.05978	1.81461	0.06238	0.07069	1.82878	-0.04003	0.08769	1.16522	0.13863	-0.08910	1.52906	-0.01664	-0.06399	1.71497	0.02552	-0.05934	1.14260	0.13989	-0.04692	0.86198	0.23862	-0.10765	1.33327	-0.02024 
593	4.933	-0.00967	1.51580	0.19121	-0.11694	1.36259	0.05009	-0.04484	1.71623	-0.07780	0.00648	1.30161	0.23594	-0.09649	1.46296	0.13488	0.04791	0.88250	0.21243	0.00248	1.15952	0.24323	0.01095	1.02428	0.25441	0.10340	1.48452	-0.02458	0.14649	1.32289	-0.01914	0.08591	1.45886	0.14169	0.05982	1.81461	0.06234	0.07072	1.82878	-0.04007	0.08777	1.16522	0.13857	-0.08906	1.52906	-0.01668	-0.06396	1.71498	0.02547	-0.05927	1.14259	0.13986	-0.04685	0.86197	0.23860	-0.10762	1.33328	-0.02030 
594	4.942	-0.00962	1.51577	0.19114	-0.11688	1.36259	0.05004	-0.04482	1.71622	-0.07786	0.00656	1.30160	0.23588	-0.09643	1.46295	0.13483	0.04797	0.88250	0.21241	0.00255	1.15953	0.24318	0.01102	1.02428	0.25436	0.10344	1.48452	-0.02464	0.14655	1.32288	-0.01921	0.08596	1.45886	0.14163	0.05986	1.81461	0.06230	0.07076	1.82878	-0.04010	0.08784	1.16522	0.13850	-0.08902	1.52905	-0.01673	-0.06392	1.71498	0.02542	-0.05920	1.14259	0.13981	-0.04678	0.86197	0.23857	-0.10758	1.33329	-0.02036 
595	4.950	-0.00957	1.51576	0.19107	-0.11683	1.36259	0.05000	-0.04479	1.71623	-0.07792	0.00665	1.30159	0.23583	-0.09637	1.46295	0.13478	0.04804	0.88250	0.21239	0.00263	1.15953	0.24313	0.01108	1.02428	0.25432	0.10349	1.48452	-0.02470	0.14660	1.32288	-0.01928	0.08601	1.45886	0.14156	0.05990	1.81461	0.06226	0.07080	1.82878	-0.04014	0.08791	1.16522	0.13843	-0.08898	1.52905	-0.01678	-0.06389	1.71500	0.02537	-0.05912	1.14259	0.13977	-0.04670	0.86197	0.23855	-0.10755	1.33330	-0.02042 
596	4.958	-0.00952	1.51574	0.19100	-0.11677	1.36259	0.04995	-0.04475	1.71623	-0.07797	0.00675	1.30158	0.23578	-0.09630	1.46294	0.13472	0.04811	0.88250	0.21236	0.00270	1.15953	0.24309	0.01115	1.02429	0.25427	0.10354	1.48452	-0.02476	0.14666	1.32288	-0.01936	0.08607	1.45886	0.14150	0.05994	1.81460	0.06222	0.07084	1.82878	-0.04017	0.08797	1.16522	0.13836	-0.08894	1.52905	-0.01684	-0.06385	1.71502	0.02532	-0.05905	1.14259	0.13972	-0.04662	0.86197	0.23852	-0.10752	1.33331	-0.02048 
597	4.967	-0.00946	1.51570	0.19092	-0.11672	1.36258	0.04991	-0.04471	1.71624	-0.07802	0.00684	1.30157	0.23572	-0.09624	1.46293	0.13466	0.04818	0.88250	0.21233	0.00277	1.15953	0.24305	0.01122	1.02430	0.25423	0.10360	1.48452	-0.02482	0.14672	1.32288	-0.01944	0.08612	1.45886	0.14144	0.05999	1.81460	0.06218	0.07088	1.82878	-0.04020	0.08803	1.16522	0.13829	-0.08890	1.52904	-0.01689	-0.06382	1.71504	0.02527	-0.05897	1.14259	0.13968	-0.04654	0.86197	0.23850	-0.10749	1.33333	-0.02054 
598	4.975	-0.00941	1.51569	0.19085	-0.11666	1.36258	0.04987	-0.04467	1.71626	-0.07808	0.00693	1.30156	0.23567	-0.09618	1.46293	0.13461	0.04825	0.88251	0.21230	0.00284	1.15953	0.24300	0.01129	1.02430	0.25418	0.10365	1.48453	-0.02489	0.14677	1.32288	-0.01952	0.08617	1.45886	0.14137	0.06004	1.81459	0.06213	0.07093	1.82878	-0.04024	0.08809	1.16523	0.13822	-0.08886	1.52904	-0.01695	-0.06378	1.71503	0.02521	-0.05891	1.14260	0.13963	-0.04644	0.86196	0.23847	-0.10746	1.33334	-0.02060 
599	4.983	-0.00936	1.51569	0.19078	-0.11661	1.36258	0.04983	-0.04462	1.71628	-0.07814	0.00702	1.30156	0.23562	-0.09612	1.46292	0.13454	0.04832	0.88252	0.21227	0.00291	1.15953	0.24296	0.01136	1.02431	0.25413	0.10370	1.48453	-0.02495	0.14682	1.32289	-0.01960	0.08623	1.45886	0.14130	0.06009	1.81459	0.06209	0.07097	1.82879	-0.04029	0.08815	1.16523	0.13815	-0.08882	1.52904	-0.01700	-0.06375	1.71501	0.02515	-0.05884	1.14260	0.13959	-0.04635	0.86196	0.23844	-0.10743	1.33335	-0.02066 
600	4.992	-0.00931	1.51567	0.19070	-0.11655	1.36258	0.04979	-0.04457	1.71630	-0.07820	0.00710	1.30156	0.23557	-0.09605	1.46292	0.13448	0.04840	0.88253	0.21224	0.00298	1.15953	0.24291	0.01143	1.02432	0.25408	0.10375	1.48453	-0.02502	0.14687	1.32290	-0.01968	0.08628	1.45886	0.14123	0.06014	1.81458	0.06204	0.07102	1.82880	-0.04034	0.08821	1.16523	0.13809	-0.08878	1.52904	-0.01706	-0.06372	1.71500	0.02510	-0.05879	1.14261	0.13954	-0.04625	0.86195	0.23841	-0.10740	1.33336	-0.02072 
601	5.000	-0.00924	1.51564	0.19061	-0.11650	1.36258	0.04975	-0.04452	1.71633	-0.07826	0.00718	1.30156	0.23552	-0.09600	1.46292	0.13442	0.04848	0.88254	0.21221	0.00305	1.15954	0.24286	0.01151	1.02433	0.25403	0.10381	1.48453	-0.02509	0.14692	1.32291	-0.01977	0.08633	1.45886	0.14116	0.06019	1.81457	0.06199	0.07107	1.82880	-0.04039	0.08826	1.16524	0.13802	-0.08873	1.52904	-0.01712	-0.06367	1.71502	0.02504	-0.05873	1.14261	0.13950	-0.04615	0.86194	0.23838	-0.10737	1.33337	-0.02078 
602	5.008	-0.00916	1.51561	0.19052	-0.11645	1.36258	0.04971	-0.04446	1.71636	-0.07832	0.00725	1.30156	0.23547	-0.09594	1.46292	0.13435	0.04856	0.88255	0.21217	0.00312	1.15955	0.24281	0.01158	1.02433	0.25399	0.10386	1.48452	-0.02516	0.14696	1.32292	-0.01985	0.08638	1.45885	0.14109	0.06024	1.81457	0.06193	0.07113	1.82880	-0.04044	0.08831	1.16524	0.13795	-0.08869	1.52904	-0.01718	-0.06363	1.71505	0.02498	-0.05867	1.14262	0.13946	-0.04604	0.86193	0.23834	-0.10733	1.33337	-0.02083 
603	5.017	-0.00909	1.51560	0.19043	-0.11641	1.36258	0.04967	-0.04439	1.71640	-0.07839	0.00732	1.30157	0.23541	-0.09589	1.46292	0.13429	0.04864	0.88257	0.21214	0.00318	1.15955	0.24276	0.01166	1.02434	0.25394	0.10391	1.48452	-0.02523	0.14700	1.32293	-0.01994	0.08643	1.45885	0.14102	0.06030	1.81456	0.06187	0.07118	1.82880	-0.04049	0.08836	1.16524	0.13788	-0.08865	1.52904	-0.01724	-0.06357	1.71510	0.02491	-0.05862	1.14262	0.13942	-0.04593	0.86193	0.23831	-0.10729	1.33338	-0.02089 
604	5.025	-0.00903	1.51562	0.19039	-0.11636	1.36259	0.04963	-0.04433	1.71643	-0.07846	0.00739	1.30157	0.23536	-0.09584	1.46293	0.13423	0.04871	0.88258	0.21210	0.00325	1.15956	0.24270	0.01173	1.02435	0.25389	0.10396	1.48451	-0.02530	0.14704	1.32293	-0.02002	0.08649	1.45885	0.14095	0.06035	1.81455	0.06181	0.07124	1.82880	-0.04055	0.08840	1.16524	0.13781	-0.08860	1.52904	-0.01731	-0.06351	1.71515	0.02485	-0.05857	1.14263	0.13939	-0.04583	0.86192	0.23828	-0.10726	1.33339	-0.02095 
